{
	"asset":{
		"generator":"Khronos glTF Blender I/O v3.6.27",
		"version":"2.0"
	},
	"extensionsUsed":[
		"KHR_materials_specular",
		"KHR_materials_ior"
	],
	"scene":0,
	"scenes":[
		{
			"name":"Scene",
			"nodes":[
				0
			]
		}
	],
	"nodes":[
		{
			"mesh":0,
			"name":"Untitled",
			"rotation":[
				0.7071068286895752,
				0,
				0,
				0.7071068286895752
			]
		}
	],
	"materials":[
		{
			"doubleSided":true,
			"extensions":{
				"KHR_materials_specular":{
					"specularColorFactor":[
						0,
						0,
						0
					]
				},
				"KHR_materials_ior":{
					"ior":1.4500000476837158
				}
			},
			"name":"palette.003",
			"pbrMetallicRoughness":{
				"baseColorTexture":{
					"index":0
				},
				"metallicFactor":0
			}
		}
	],
	"meshes":[
		{
			"name":"Untitled.002",
			"primitives":[
				{
					"attributes":{
						"POSITION":0,
						"NORMAL":1,
						"TEXCOORD_0":2
					},
					"indices":3,
					"material":0
				}
			]
		}
	],
	"textures":[
		{
			"sampler":0,
			"source":0
		}
	],
	"images":[
		{
			"bufferView":4,
			"mimeType":"image/png",
			"name":"com"
		}
	],
	"accessors":[
		{
			"bufferView":0,
			"componentType":5126,
			"count":5041,
			"max":[
				7.511202335357666,
				4.6802873611450195,
				4.037529468536377
			],
			"min":[
				-7.488797187805176,
				-3.9197123050689697,
				-5.962470054626465
			],
			"type":"VEC3"
		},
		{
			"bufferView":1,
			"componentType":5126,
			"count":5041,
			"type":"VEC3"
		},
		{
			"bufferView":2,
			"componentType":5126,
			"count":5041,
			"type":"VEC2"
		},
		{
			"bufferView":3,
			"componentType":5123,
			"count":9786,
			"type":"SCALAR"
		}
	],
	"bufferViews":[
		{
			"buffer":0,
			"byteLength":60492,
			"byteOffset":0,
			"target":34962
		},
		{
			"buffer":0,
			"byteLength":60492,
			"byteOffset":60492,
			"target":34962
		},
		{
			"buffer":0,
			"byteLength":40328,
			"byteOffset":120984,
			"target":34962
		},
		{
			"buffer":0,
			"byteLength":19572,
			"byteOffset":161312,
			"target":34963
		},
		{
			"buffer":0,
			"byteLength":971,
			"byteOffset":180884
		}
	],
	"samplers":[
		{
			"magFilter":9729,
			"minFilter":9987
		}
	],
	"buffers":[
		{
			"byteLength":181856,
			"uri":"data:application/octet-stream;base64,"
		}
	]
}
